<svg id="visual" viewBox="0 0 900 600" width="900" height="600" xmlns="http://www.w3.org/2000/svg" xmlns:xlink="http://www.w3.org/1999/xlink" version="1.1"><rect x="0" y="0" width="900" height="600" fill="#a3e6f5"></rect><path d="M0 356L21.5 371.2C43 386.3 86 416.7 128.8 429.7C171.7 442.7 214.3 438.3 257.2 427.7C300 417 343 400 385.8 391.2C428.7 382.3 471.3 381.7 514.2 376.2C557 370.7 600 360.3 642.8 361.2C685.7 362 728.3 374 771.2 387.3C814 400.7 857 415.3 878.5 422.7L900 430L900 601L878.5 601C857 601 814 601 771.2 601C728.3 601 685.7 601 642.8 601C600 601 557 601 514.2 601C471.3 601 428.7 601 385.8 601C343 601 300 601 257.2 601C214.3 601 171.7 601 128.8 601C86 601 43 601 21.5 601L0 601Z" fill="#86b587"></path><path d="M0 412L21.5 418.7C43 425.3 86 438.7 128.8 444.8C171.7 451 214.3 450 257.2 440.5C300 431 343 413 385.8 417.3C428.7 421.7 471.3 448.3 514.2 461.5C557 474.7 600 474.3 642.8 474.3C685.7 474.3 728.3 474.7 771.2 475.5C814 476.3 857 477.7 878.5 478.3L900 479L900 601L878.5 601C857 601 814 601 771.2 601C728.3 601 685.7 601 642.8 601C600 601 557 601 514.2 601C471.3 601 428.7 601 385.8 601C343 601 300 601 257.2 601C214.3 601 171.7 601 128.8 601C86 601 43 601 21.5 601L0 601Z" fill="#739c78"></path><path d="M0 455L21.5 452.7C43 450.3 86 445.7 128.8 452.7C171.7 459.7 214.3 478.3 257.2 489C300 499.7 343 502.3 385.8 500.7C428.7 499 471.3 493 514.2 484.5C557 476 600 465 642.8 461C685.7 457 728.3 460 771.2 468.3C814 476.7 857 490.3 878.5 497.2L900 504L900 601L878.5 601C857 601 814 601 771.2 601C728.3 601 685.7 601 642.8 601C600 601 557 601 514.2 601C471.3 601 428.7 601 385.8 601C343 601 300 601 257.2 601C214.3 601 171.7 601 128.8 601C86 601 43 601 21.5 601L0 601Z" fill="#628469"></path><path d="M0 486L21.5 494.8C43 503.7 86 521.3 128.8 526.3C171.7 531.3 214.3 523.7 257.2 522.7C300 521.7 343 527.3 385.8 524.8C428.7 522.3 471.3 511.7 514.2 509.7C557 507.7 600 514.3 642.8 519.8C685.7 525.3 728.3 529.7 771.2 532.2C814 534.7 857 535.3 878.5 535.7L900 536L900 601L878.5 601C857 601 814 601 771.2 601C728.3 601 685.7 601 642.8 601C600 601 557 601 514.2 601C471.3 601 428.7 601 385.8 601C343 601 300 601 257.2 601C214.3 601 171.7 601 128.8 601C86 601 43 601 21.5 601L0 601Z" fill="#526c59"></path><path d="M0 564L21.5 562.7C43 561.3 86 558.7 128.8 560.2C171.7 561.7 214.3 567.3 257.2 566.5C300 565.7 343 558.3 385.8 557C428.7 555.7 471.3 560.3 514.2 561C557 561.7 600 558.3 642.8 558C685.7 557.7 728.3 560.3 771.2 558.2C814 556 857 549 878.5 545.5L900 542L900 601L878.5 601C857 601 814 601 771.2 601C728.3 601 685.7 601 642.8 601C600 601 557 601 514.2 601C471.3 601 428.7 601 385.8 601C343 601 300 601 257.2 601C214.3 601 171.7 601 128.8 601C86 601 43 601 21.5 601L0 601Z" fill="#435549"></path></svg>